<?xml version="1.0" encoding="utf-8"?>
<!-- Generator: Adobe Illustrator 28.0.0, SVG Export Plug-In . SVG Version: 6.00 Build 0)  -->
<svg version="1.1" xmlns="http://www.w3.org/2000/svg" xmlns:xlink="http://www.w3.org/1999/xlink" x="0px" y="0px"
	 viewBox="0 0 1459 873" style="enable-background:new 0 0 1459 873;" xml:space="preserve">
<style type="text/css">
	.st0{
		stroke: #000000;
		stroke-width: 8;
		stroke-miterlimit:10;
		fill: #1a1a1a;
		stroke-dasharray: 2000;
		animation: pathDraw 4s ease-in-out infinite;
		filter: drop-shadow(0 2px 4px rgba(0, 0, 0, 0.15));
	}
	
	@keyframes pathDraw {
		0% {
			stroke-dashoffset: 2000;
			fill-opacity: 0;
			stroke-opacity: 0;
		}
		25% {
			stroke-dashoffset: 0;
			fill-opacity: 0;
			stroke-opacity: 1;
		}
		40% {
			stroke-dashoffset: 0;
			fill-opacity: 0.85;
			stroke-opacity: 1;
		}
		70% {
			stroke-dashoffset: 0;
			fill-opacity: 0.85;
			stroke-opacity: 1;
		}
		85% {
			stroke-dashoffset: -2000;
			fill-opacity: 0.3;
			stroke-opacity: 0.5;
		}
		100% {
			stroke-dashoffset: -2000;
			fill-opacity: 0;
			stroke-opacity: 0;
		}
	}
	
	/* 为每个路径添加不同的延迟，创建波浪式绘制效果 */
	#图层_1 > path:nth-child(1) {
		animation-delay: 0s;
	}
	#图层_1 > path:nth-child(2) {
		animation-delay: 0.2s;
	}
	#图层_1 > path:nth-child(3) {
		animation-delay: 0.4s;
	}
	#图层_1 > rect {
		animation-delay: 0.6s;
	}
	#图层_1 > path:nth-child(5) {
		animation-delay: 0.8s;
	}
</style>
<g id="图层_1">
	<path class="st0" d="M753,5.5h353c119.8,0,217,97.2,217,217v0c0,119.8-97.2,217-217,217"/>
	<path class="st0" d="M1453.5,868.5H1051c-118.5,0-214.5-96-214.5-214.5v0c0-118.5,96-214.5,214.5-214.5h53.7"/>
	<path class="st0" d="M267.5,869.5H6.9v-678c0-102.2,82.8-185,185-185h75.6V869.5z"/>
	<rect x="267.5" y="361.5" class="st0" width="224" height="223"/>
	<path class="st0" d="M581.3,868.5h-89.2c-0.1,0-0.2-0.1-0.2-0.2V121.2c0-63.9,51.8-115.7,115.7-115.7h144.7c0.1,0,0.2,0.1,0.2,0.2
		v691.6C752.5,791.9,675.8,868.5,581.3,868.5z"/>
	
		<image style="overflow:visible;opacity:0.63;" width="1024" height="1024" xlink:href="HR.png"  transform="matrix(2.291 0 0 2.291 4056 -766)">
	</image>
</g>
<g id="图层_2">
</g>
</svg>
